<svg xmlns="http://www.w3.org/2000/svg" width="124.948" height="48.704" viewBox="0 0 459 176">
  <g id="teja" data-name="teja" transform="matrix(0.966, -0.259, 0.259, 0.966, 25.923, 157.556)" stroke="#00c7ff" opacity="0.8" stroke-width="3">
    <path id="Path_1" data-name="Path 1" d="M150.065-.456a23.824,23.824,0,0,1-12.246-3.35l-.006,0-.005,0a24.452,24.452,0,0,1-8.005-7.145,28.6,28.6,0,0,1-4.578-9.819l0-.009,0-.009a18.77,18.77,0,0,1-.582-2.8l-.968-.1a25.586,25.586,0,0,1-4.183,7.449A41.253,41.253,0,0,1,106.551-5.3,42.47,42.47,0,0,1,90.276-.633c-1.329.1-2.632.145-3.871.145A32.482,32.482,0,0,1,74.834-2.357l0,0,0,0a19.46,19.46,0,0,1-6.451-3.749,16.262,16.262,0,0,1-4.06-5.7A22.767,22.767,0,0,1,62.4-21.026a30.581,30.581,0,0,1,1.928-10.26c1.236-3.444,3.709-7.576,7.35-12.283l0,0,0,0c1.6-2.131,2.9-3.751,3.876-4.814l.06-.06.068-.068.585-.585-.79-.246a25.714,25.714,0,0,1-8.012-3.9A13.321,13.321,0,0,1,63.1-58.779a13.785,13.785,0,0,1-.977-6.319,18.189,18.189,0,0,1,2.04-6.765,37.7,37.7,0,0,1,9.66-12.059,50.845,50.845,0,0,1,15.708-8.351,48.7,48.7,0,0,1,15.752-2.738c1.381,0,2.776.066,4.145.2a16.425,16.425,0,0,1,5.594,1.634,11.456,11.456,0,0,1,3.915,3.3,10.778,10.778,0,0,1,2.065,4.9,13.312,13.312,0,0,1-.524,5.725,16.638,16.638,0,0,1-4.361,7.145,28.139,28.139,0,0,1-8.458,5.5l-1.084.481,1.1.441a7.929,7.929,0,0,1,2.287,1.4l0,0,0,0a8.6,8.6,0,0,1,2.425,3.352,13.373,13.373,0,0,1,.907,4.782v.006a18.691,18.691,0,0,1-1.25,7.364,25.609,25.609,0,0,1-4.305,7.149l-1.2,1.441,1.755-.653a17.423,17.423,0,0,1,6.019-1.2,11.366,11.366,0,0,1,3.9.664,8.933,8.933,0,0,1,4.731,4.1,14.028,14.028,0,0,1,1.6,4.512l.968.068a15.351,15.351,0,0,1,5.182-7.531,11.913,11.913,0,0,1,7.044-2.492,10.958,10.958,0,0,1,1.82.155A14.277,14.277,0,0,1,147.729-38l.655.7.2-.94c3.227-15.149,5-23.791,5.271-25.683l.1-.693-.688.131a23.154,23.154,0,0,1-4.315.384c-.574,0-1.17-.018-1.771-.054a33.062,33.062,0,0,1-6.184-.93,12.119,12.119,0,0,1-5.057-2.725,9.787,9.787,0,0,1-3.017-4.939A14.169,14.169,0,0,1,133-79.517a13.4,13.4,0,0,1,3.372-5.726,31.315,31.315,0,0,1,13.025-7.9A45.6,45.6,0,0,1,163.622-95.4c.749,0,1.513.018,2.27.053,6.256.264,10.794,1.456,13.487,3.541l0,0,0,0a13.688,13.688,0,0,1,4.586,6.617A33.281,33.281,0,0,1,185.53-74.25a191.776,191.776,0,0,1-2.155,29.223c-.447,3.31-.9,6.163-1.346,8.483s-1.1,5.17-1.951,8.475a50.392,50.392,0,0,1-2.939,8.554,57.681,57.681,0,0,1-4.082,7.294A25.129,25.129,0,0,1,167.3-6a24.5,24.5,0,0,1-7.608,3.9h-.006A31.156,31.156,0,0,1,150.065-.456Zm-3.4-2.155a23.221,23.221,0,0,0,3.8.315,23.8,23.8,0,0,0,2.883-.177,30.207,30.207,0,0,0,6.59-1.579,23.137,23.137,0,0,0,5.859-3.1c4.928-3.47,8.852-9.871,11.661-19.024a149.118,149.118,0,0,0,5.149-27.5,152.454,152.454,0,0,0,.947-23.436c-.369-7.732-2.971-12.647-7.732-14.609-2.821-1.2-6.791-1.8-11.8-1.8-.356,0-.722,0-1.089.009a43.331,43.331,0,0,0-13.652,2.456,27.372,27.372,0,0,0-11.334,6.738,11.335,11.335,0,0,0-3.169,10.989l0,.008,0,.008a8.575,8.575,0,0,0,4.857,5.725,15.963,15.963,0,0,0,6.97,1.623c.275,0,.556-.007.833-.022,2.609-.135,5.073-.34,7.324-.61h.011a2.068,2.068,0,0,1,.291-.022,1.029,1.029,0,0,1,.769.286.968.968,0,0,1,.266.914v.006c-.357,2.321-.833,4.924-1.413,7.737s-1.126,5.36-1.618,7.552-1.08,4.815-1.755,7.83c-.671,3-1.193,5.559-1.553,7.623a.811.811,0,0,1-.828.627c-.04,0-.08,0-.119,0a.814.814,0,0,1-.818-.471L148-34.526l-.007-.012a12.987,12.987,0,0,0-4.561-4.7,10.974,10.974,0,0,0-5.791-1.636c-.164,0-.332,0-.5.01h-.005c-3.589.189-6.5,2.275-8.648,6.2l0,.01-.005.011a18.96,18.96,0,0,0-1.869,11.019,24.958,24.958,0,0,0,4.06,10.535A22.331,22.331,0,0,0,146.668-2.611ZM78.346-48.372a4.135,4.135,0,0,0-.94.769c-.455.455-1.052,1.1-1.775,1.911l-.01.011-.009.012c-.988,1.257-2.171,2.8-3.517,4.6l0,0,0,0c-3.714,5.073-6.1,9.951-7.1,14.5-1.466,6.962-.48,12.732,2.927,17.153,2.495,3.234,6.319,5.385,11.368,6.4h.005a39.464,39.464,0,0,0,7.3.684,41.108,41.108,0,0,0,7.4-.683,38.909,38.909,0,0,0,13.6-5.195A36.431,36.431,0,0,0,118.8-18.543a19.754,19.754,0,0,0,4-13.223,10.392,10.392,0,0,0-1.988-5.389,7.427,7.427,0,0,0-4.622-2.89h-.011a10.241,10.241,0,0,0-1.774-.15,14.19,14.19,0,0,0-3.57.5,20.164,20.164,0,0,0-4.64,1.735c-1.12.627-2.685,1.535-4.652,2.7l-.8.4-.218.109-.048.24c-.268,1.341-.676,3.334-1.212,5.926a.717.717,0,0,1-.411.475,1.1,1.1,0,0,1-.5.127.983.983,0,0,1-.239-.03l-.006,0h-.006c-.361-.08-.731-.244-.562-1.178v-.007c.179-1.073.405-2.365.674-3.84s.541-2.952.809-4.385.538-2.733.8-3.89a.717.717,0,0,1,.413-.48,1.093,1.093,0,0,1,.5-.127.985.985,0,0,1,.239.03l.011,0,.012,0c.518.1.833.341.689,1.16-.091.364-.227.953-.4,1.751l-.341,1.535,1.165-1.056c5.834-5.288,8.933-10.718,9.208-16.14.187-3.449-.491-6.068-2.015-7.783l-.01-.011-.01-.01a7.057,7.057,0,0,0-5.181-1.755,23.062,23.062,0,0,0-5.971.952l-.3.083-.057.307-1.077,5.788a.718.718,0,0,1-.41.471,1.1,1.1,0,0,1-.5.127.983.983,0,0,1-.239-.03l-.012,0-.012,0c-.521-.1-.837-.344-.686-1.175l2.426-12.941a.929.929,0,0,1,.5-.549,1.238,1.238,0,0,1,.591-.178.783.783,0,0,1,.175.019c.55.19.722.532.594,1.176l-.81,4.05-.159.795.782-.215a52.527,52.527,0,0,0,11.791-4.637,17.116,17.116,0,0,0,7.3-7.922c1.686-3.747,1.586-7.174-.3-10.19-1.609-2.649-4.37-4.182-8.207-4.556-1.363-.131-2.752-.2-4.13-.2A49.407,49.407,0,0,0,89.07-90.112h-.007c-10.872,3.986-18.5,10.2-22.684,18.469-2.492,4.892-2.9,9.173-1.221,12.725,1.767,3.813,6.375,6.676,13.7,8.506.343.086.65.277.569,1.085-.078.777-.43.777-.641.777-.04,0-.083,0-.128-.006l-.171.982a.467.467,0,0,1-.326-.319.441.441,0,0,1,.06-.389ZM28.751-.458a14.345,14.345,0,0,1-2.851-.3,14.419,14.419,0,0,1-6.579-3.714,16.243,16.243,0,0,1-3.929-6.42,43.313,43.313,0,0,1-1.8-7.54,44.457,44.457,0,0,1-.4-7.743c.089-3.573.384-7.578.875-11.908s1.037-8.882,1.619-13.494.971-8.657,1.151-11.983l.029-.527h-.528c-4.49,0-8.094-.664-10.711-1.972a9.675,9.675,0,0,1-4.116-3.727,14.213,14.213,0,0,1-1.82-6.131v-.01a18.251,18.251,0,0,1,.458-6.768,16.436,16.436,0,0,1,2.949-5.831l0,0,0,0a14.788,14.788,0,0,1,4.474-3.917,22.094,22.094,0,0,1,6.433-2.373,65.514,65.514,0,0,1,7.5-1c2.764-.223,4.953-.336,6.507-.336s4.262.045,8.021.135,6.076.135,6.891.135c5.022.088,8.849.84,11.374,2.233a14.362,14.362,0,0,1,6.394,7.447l.006.014.007.014a17.555,17.555,0,0,1,1.505,9.717,14.187,14.187,0,0,1-3.974,8.746l-.006.006-.006.006a14.2,14.2,0,0,1-4.3,3.163,15.757,15.757,0,0,1-5.343,1.4H48.33a2.73,2.73,0,0,0-.661.082,1.4,1.4,0,0,1-.284.053h-.39l-.095.379a4.2,4.2,0,0,0-.15.914c-.092,1.484-.637,11.473-1.619,29.69-.446,8.558-1.3,14.875-2.542,18.775-1.49,4.734-3.7,8.192-6.568,10.277l0,0,0,0A11.724,11.724,0,0,1,28.751-.458ZM18.94-65.085c-.269,3.933-.9,9.958-1.886,17.909-.986,7.982-1.623,14.078-1.893,18.118v.01c-.362,7.689.389,13.8,2.233,18.173,1.879,4.453,4.934,7.231,9.082,8.256h.011a11.946,11.946,0,0,0,2.58.3,9.04,9.04,0,0,0,4.24-1.018A11.806,11.806,0,0,0,38.1-8.124a32.221,32.221,0,0,0,2.742-6.24,45.864,45.864,0,0,0,1.5-6.62v-.008c.36-2.612.725-7.623,1.084-14.894.806-15.044,1.305-23.944,1.484-26.449v-.006a7.213,7.213,0,0,1,.4-2.5,3.227,3.227,0,0,1,1-.278,6.841,6.841,0,0,1,1.034-.084c.159,0,.315.007.465.02.508.046,1,.07,1.463.07h.037l.037-.006a13.063,13.063,0,0,0,5.192-1.965,12.443,12.443,0,0,0,5.48-7.931,14.984,14.984,0,0,0-.7-9.683,12.619,12.619,0,0,0-6.314-7.417C50.667-93.328,46.8-93.92,41.175-93.92c-1.249,0-3.356-.045-6.262-.135s-5.238-.135-6.9-.135-3.742.068-6.17.2a40.637,40.637,0,0,0-6.692.888c-4.588.919-8.042,2.7-10.265,5.294l0,0,0,.005A15.617,15.617,0,0,0,1.525-76.928c.187,4.869,2.154,8.107,5.845,9.621,2.1.84,5.24,1.265,9.339,1.265.4,0,.826,0,1.25-.012a.939.939,0,0,1,.655.326A.945.945,0,0,1,18.94-65.085ZM198.566-.492a11.061,11.061,0,0,1-6.055-1.886,14.092,14.092,0,0,1-4.826-5.151l0,0,0,0c-2.1-3.678-2.988-9.264-2.635-16.6a147.208,147.208,0,0,1,1.918-18.2A138.907,138.907,0,0,1,191.1-59.793a122.234,122.234,0,0,1,6.587-16.669c3.109-6.572,6.069-11.244,8.8-13.891a20.31,20.31,0,0,1,6.427-3.9,21.783,21.783,0,0,1,7.6-1.3h.206a25.416,25.416,0,0,1,7.812,1.24,22.965,22.965,0,0,1,6.731,3.579,23.665,23.665,0,0,1,7.4,10.707,69.874,69.874,0,0,1,3.215,15.28c.984,9.3,1.528,18.1,1.617,26.142a86.374,86.374,0,0,1-.9,14.8,43.741,43.741,0,0,1-3.235,11.311v0l0,0c-1.927,4.38-4.492,7.528-7.624,9.355a13.978,13.978,0,0,1-6.917,2.071,10.644,10.644,0,0,1-4.5-1.013,10.885,10.885,0,0,1-4.32-3.777A19.4,19.4,0,0,1,217.3-12.4V-12.4l0-.006a41.355,41.355,0,0,1-1.2-7.6l-.965-.149a105.2,105.2,0,0,1-4.835,10.746,21.062,21.062,0,0,1-5.233,6.592A10.424,10.424,0,0,1,198.97-.5C198.836-.494,198.7-.492,198.566-.492ZM220.62-93.633c-.895,0-1.827.04-2.772.12-5.446.462-10.069,3.535-13.741,9.134-4.866,7.479-8.975,17.155-12.214,28.76a136.6,136.6,0,0,0-5.013,31.433c-.272,7.175.568,12.49,2.5,15.8a12.674,12.674,0,0,0,5.338,5.055,8.751,8.751,0,0,0,3.927.978,8.4,8.4,0,0,0,2.953-.553l.006,0,.006,0c2.987-1.214,5.8-4.614,8.365-10.107,1.977-4.224,3.891-8.917,5.688-13.948l.345-.967-.974.325c-1.614.538-4.023,1.356-7.159,2.431a1,1,0,0,1-.311.056.636.636,0,0,1-.5-.253,1.131,1.131,0,0,1-.286-1c.039-.232.156-.519.724-.681l.008,0,.007,0c1.973-.628,5-1.628,8.985-2.973s7-2.341,8.97-2.967l.017-.005.017-.007a1.294,1.294,0,0,1,.467-.108c.123,0,.4,0,.6.656-.017.842-.357,1.1-.623,1.22l-7.269,2.423-.27.09-.061.278a26.485,26.485,0,0,0-.347,7.57,82.43,82.43,0,0,0,1.087,8.421A12.872,12.872,0,0,0,222.6-5.519a8.45,8.45,0,0,0,6.184,2.534c.245,0,.5-.009.751-.026h.013a12.646,12.646,0,0,0,9.475-5.679,32.889,32.889,0,0,0,5-11.716c1.444-6.048,1.9-14.271,1.362-24.439-.538-10.854-1.175-18.773-1.9-23.538-1.451-9.979-4.691-17.08-9.628-21.1l-.005,0,0,0A21,21,0,0,0,220.62-93.633Zm-1.937,48.55a2.738,2.738,0,0,1-.385-.029.619.619,0,0,1-.423-.222.875.875,0,0,1-.16-.558c.179-5.9.587-11.831,1.212-17.639v-.008c.082-.905.523-1.03.987-1.03a1.109,1.109,0,0,1,.451.15.938.938,0,0,1,.4.35.357.357,0,0,1,.022.327l-.017.051-.006.054c-.629,5.838-.993,11.8-1.083,17.731v.008a.7.7,0,0,1-.191.524.868.868,0,0,1-.471.265A2.075,2.075,0,0,1,218.683-45.084Z" fill="#7ee2ff"/>
    <path id="Path_2" data-name="Path 2" d="M28.013-95.66c-1.541,0-3.717.113-6.467.334a65.065,65.065,0,0,0-7.438,1,21.593,21.593,0,0,0-6.283,2.316A14.291,14.291,0,0,0,3.5-88.23l-.006.008-.006.008A15.939,15.939,0,0,0,.628-82.561a17.754,17.754,0,0,0-.444,6.583v.02a13.724,13.724,0,0,0,1.749,5.916,9.177,9.177,0,0,0,3.9,3.534l0,0,0,0c2.547,1.274,6.076,1.919,10.488,1.919H17.39l-.057,1.054c-.18,3.338-.569,7.381-1.154,12.019-.581,4.607-1.126,9.145-1.618,13.487-.489,4.316-.783,8.306-.871,11.86v.008a43.967,43.967,0,0,0,.4,7.655,42.81,42.81,0,0,0,1.781,7.453,15.747,15.747,0,0,0,3.808,6.224,13.923,13.923,0,0,0,6.34,3.581,13.834,13.834,0,0,0,2.736.286,11.234,11.234,0,0,0,6.957-2.4l.009-.007.01-.007c2.779-2.021,4.927-5.393,6.385-10.024,1.228-3.86,2.076-10.134,2.519-18.651.98-18.17,1.524-28.155,1.619-29.682a4.652,4.652,0,0,1,.165-1.016l.189-.757h.764a1.677,1.677,0,0,0,.18-.038,3.23,3.23,0,0,1,.783-.1h.225A15.253,15.253,0,0,0,53.707-65a13.7,13.7,0,0,0,4.152-3.053l.011-.012.012-.012A12.671,12.671,0,0,0,60.464-71.8a15.453,15.453,0,0,0,1.249-4.723,17.064,17.064,0,0,0-1.458-9.445l-.014-.028-.012-.029A15.653,15.653,0,0,0,57.663-90.3a12.85,12.85,0,0,0-3.606-2.915c-2.452-1.353-6.2-2.083-11.136-2.171-.833,0-3.09-.045-6.9-.135-3.754-.089-6.449-.135-8.009-.135m25.226,3.1a13.1,13.1,0,0,1,6.553,7.68,15.475,15.475,0,0,1,.716,9.982,12.93,12.93,0,0,1-5.7,8.237,13.559,13.559,0,0,1-5.385,2.036l-.074.011h-.075c-.478,0-.985-.024-1.508-.072-.134-.012-.275-.018-.419-.018a6.346,6.346,0,0,0-.958.078,3.745,3.745,0,0,0-.689.16,9.527,9.527,0,0,0-.288,2.15v.012c-.179,2.5-.678,11.4-1.484,26.438-.36,7.285-.726,12.31-1.088,14.937v.016a46.369,46.369,0,0,1-1.519,6.693,32.727,32.727,0,0,1-2.784,6.337,12.3,12.3,0,0,1-5,4.984,9.534,9.534,0,0,1-4.472,1.075,12.446,12.446,0,0,1-2.689-.31l-.012,0-.012,0c-4.309-1.065-7.479-3.941-9.423-8.547C15.06-15.12,14.3-21.307,14.661-29.072v-.019c.27-4.049.908-10.154,1.9-18.146.979-7.921,1.612-13.927,1.881-17.852a.537.537,0,0,0-.179-.286.5.5,0,0,0-.3-.18c-.425.008-.846.012-1.251.012-4.221,0-7.335-.425-9.52-1.3l0,0,0,0c-3.888-1.6-5.959-4.982-6.155-10.062a16.1,16.1,0,0,1,3.463-11.2l.008-.01.009-.01c2.3-2.68,5.844-4.516,10.541-5.457a41.155,41.155,0,0,1,6.768-.9c2.437-.135,4.522-.2,6.2-.2s3.994.046,6.916.136c2.9.089,5,.134,6.247.134,5.7,0,9.646.61,12.064,1.864m167.276-2.5a21.286,21.286,0,0,0-7.429,1.271,19.824,19.824,0,0,0-6.261,3.8c-2.686,2.606-5.608,7.227-8.686,13.734l0,0,0,0a121.77,121.77,0,0,0-6.559,16.6,138.282,138.282,0,0,0-4.121,17.39,146.784,146.784,0,0,0-1.911,18.139c-.349,7.242.515,12.736,2.569,16.331l.006.01,0,.01A13.6,13.6,0,0,0,192.783-2.8a10.565,10.565,0,0,0,5.783,1.806c.127,0,.257,0,.385-.007a9.936,9.936,0,0,0,5.8-2.219,20.568,20.568,0,0,0,5.1-6.436,104.66,104.66,0,0,0,4.81-10.691l1.929.3a40.877,40.877,0,0,0,1.185,7.51l0,.012,0,.012A18.914,18.914,0,0,0,220.4-6.133a10.391,10.391,0,0,0,4.122,3.608,10.145,10.145,0,0,0,4.286.965,13.489,13.489,0,0,0,6.666-2c3.038-1.773,5.534-4.842,7.418-9.123l0-.007,0-.007A43.293,43.293,0,0,0,246.1-23.883a85.862,85.862,0,0,0,.9-14.711V-38.6c-.089-8.031-.632-16.811-1.614-26.094a69.357,69.357,0,0,0-3.191-15.169,23.163,23.163,0,0,0-7.236-10.479,22.468,22.468,0,0,0-6.579-3.5,24.915,24.915,0,0,0-7.658-1.215h-.2m23.474,26.6c.722,4.781,1.361,12.717,1.9,23.585.542,10.215.08,18.485-1.375,24.579A33.387,33.387,0,0,1,239.432-8.4a13.125,13.125,0,0,1-9.837,5.89h-.026c-.265.018-.529.027-.786.027a8.936,8.936,0,0,1-6.538-2.681,13.364,13.364,0,0,1-3.651-7.209,82.865,82.865,0,0,1-1.093-8.472,26.945,26.945,0,0,1,.357-7.715l.121-.556.54-.18,5.67-1.89,1.575-.525c.108-.051.277-.173.3-.683a.879.879,0,0,0-.109-.227.872.872,0,0,0-.272.072l-.033.013-.035.011c-1.965.625-4.98,1.623-8.961,2.965s-7.018,2.347-8.994,2.975l-.014,0-.014,0c-.338.1-.355.2-.369.283a.64.64,0,0,0,.166.589c.076.085.107.085.13.085a.51.51,0,0,0,.154-.031c3.136-1.075,5.545-1.893,7.158-2.431l1.949-.65-.691,1.935c-1.8,5.046-3.722,9.754-5.706,13.992-2.655,5.69-5.478,9.078-8.63,10.359l-.012.005-.013,0a8.891,8.891,0,0,1-3.128.584,9.241,9.241,0,0,1-4.15-1.031,13.166,13.166,0,0,1-5.547-5.251c-2.006-3.439-2.845-8.695-2.565-16.071a137.01,137.01,0,0,1,5.031-31.547c3.252-11.654,7.382-21.376,12.277-28.9,3.76-5.734,8.51-8.883,14.117-9.358.958-.081,1.9-.122,2.814-.122a21.489,21.489,0,0,1,13.544,4.244l.009.007.009.007c5.037,4.1,8.336,11.31,9.807,21.417M163.622-94.9a45.1,45.1,0,0,0-14.068,2.232A30.822,30.822,0,0,0,136.733-84.9a12.906,12.906,0,0,0-3.25,5.513,13.684,13.684,0,0,0-.075,6.523,9.292,9.292,0,0,0,2.863,4.68,11.618,11.618,0,0,0,4.849,2.615,32.559,32.559,0,0,0,6.09.916c.591.036,1.177.053,1.741.053a22.676,22.676,0,0,0,4.222-.375l1.375-.262-.2,1.386c-.276,1.93-2,10.342-5.277,25.717l-.4,1.88-1.31-1.407a13.787,13.787,0,0,0-7.872-4.42,10.461,10.461,0,0,0-1.737-.148,11.419,11.419,0,0,0-6.742,2.39,14.818,14.818,0,0,0-4.933,7.058,17.328,17.328,0,0,1,.2,2.1v.018q.009.5-.006,1a20.746,20.746,0,0,1,1.752-5.2l.01-.021.012-.021c2.238-4.087,5.286-6.26,9.059-6.458h.011c.174-.007.348-.011.519-.011a11.465,11.465,0,0,1,6.051,1.709,13.478,13.478,0,0,1,4.735,4.88l.014.024.012.025c.061.121.111.195.371.195l.086,0c.261-.017.322-.083.374-.244.361-2.066.883-4.628,1.552-7.616q1.013-4.523,1.755-7.831c.491-2.189,1.035-4.727,1.616-7.543s1.053-5.4,1.409-7.713V-65.5a.47.47,0,0,0-.126-.479.524.524,0,0,0-.416-.139,1.585,1.585,0,0,0-.221.017l-.011,0h-.011c-2.262.271-4.737.478-7.357.613-.286.015-.575.022-.859.022a16.459,16.459,0,0,1-7.187-1.672,9.052,9.052,0,0,1-5.124-6.05l0-.017,0-.017a11.809,11.809,0,0,1,3.3-11.449,27.863,27.863,0,0,1,11.531-6.861,43.832,43.832,0,0,1,13.8-2.482c.37-.006.739-.009,1.1-.009,5.077,0,9.113.62,11.995,1.842,4.954,2.043,7.658,7.1,8.038,15.042a153.147,153.147,0,0,1-.949,23.511v.006a149.589,149.589,0,0,1-5.168,27.592c-2.842,9.26-6.828,15.747-11.847,19.283a23.634,23.634,0,0,1-5.981,3.166,30.708,30.708,0,0,1-6.7,1.6,24.315,24.315,0,0,1-2.944.181,23.726,23.726,0,0,1-3.882-.321,22.813,22.813,0,0,1-16.339-10.7,25.456,25.456,0,0,1-4.137-10.742,19.012,19.012,0,0,1-.172-2.9,21.9,21.9,0,0,1-.775,3.033,18.28,18.28,0,0,0,.536,2.494l.005.018,0,.018a28.111,28.111,0,0,0,4.5,9.648,23.941,23.941,0,0,0,7.842,7l.011.006.011.006A23.328,23.328,0,0,0,150.065-.956a30.662,30.662,0,0,0,9.465-1.615l.006,0,.006,0A24,24,0,0,0,166.995-6.4a24.61,24.61,0,0,0,5.643-6.1,57.046,57.046,0,0,0,4.047-7.23,49.966,49.966,0,0,0,2.909-8.469c.846-3.295,1.5-6.136,1.944-8.445s.9-5.154,1.341-8.45v-.01a191.141,191.141,0,0,0,2.15-29.141v-.01A32.8,32.8,0,0,0,183.5-85.021a13.2,13.2,0,0,0-4.413-6.382l-.008-.006-.007-.006c-2.61-2.021-7.051-3.177-13.205-3.437-.749-.035-1.5-.053-2.246-.053m-58.336.394h0A48.194,48.194,0,0,0,89.7-91.8a50.352,50.352,0,0,0-15.554,8.265,37.2,37.2,0,0,0-9.533,11.9,17.7,17.7,0,0,0-1.987,6.578,13.288,13.288,0,0,0,.942,6.09,12.827,12.827,0,0,0,4.2,5.321,25.225,25.225,0,0,0,7.856,3.821l1.581.491-1.171,1.171-.068.067-.052.052c-.962,1.051-2.253,2.655-3.838,4.769l0,.006,0,.006C68.462-38.6,66.015-34.512,64.8-31.118a30.083,30.083,0,0,0-1.9,10.092,22.265,22.265,0,0,0,1.873,9.014v.006a15.767,15.767,0,0,0,3.936,5.525A18.965,18.965,0,0,0,75-2.83l.009,0,.009,0A31.991,31.991,0,0,0,86.405-.988c1.225,0,2.514-.048,3.832-.144A41.964,41.964,0,0,0,106.32-5.745a40.759,40.759,0,0,0,12.775-10.8,25.248,25.248,0,0,0,4.026-7.087,20.973,20.973,0,0,1-.132-2.978,22.208,22.208,0,0,1-3.778,8.36A36.937,36.937,0,0,1,107.845-7.786,39.409,39.409,0,0,1,94.073-2.526a41.609,41.609,0,0,1-7.487.691,39.963,39.963,0,0,1-7.391-.692h-.011c-5.17-1.034-9.1-3.248-11.666-6.58C64.017-13.652,63-19.559,64.5-26.666v-.009c1.015-4.615,3.434-9.557,7.19-14.686l0,0,0,0c1.348-1.8,2.534-3.348,3.524-4.608L75.237-46l.02-.023c.73-.821,1.334-1.471,1.8-1.933a4.484,4.484,0,0,1,1.07-.862l.391.782.056-1.023a1.194,1.194,0,0,1,.158.01l.054,0a.448.448,0,0,0,.069,0,.989.989,0,0,0,.074-.322.935.935,0,0,0-.038-.477c-.022-.038-.124-.066-.155-.074-7.471-1.868-12.19-4.822-14.027-8.78-1.751-3.7-1.337-8.127,1.228-13.162C70.171-80.251,77.9-86.547,88.891-90.579l.007,0,.007,0a49.91,49.91,0,0,1,16.5-2.951c1.393,0,2.8.067,4.178.2,4,.39,6.888,2,8.584,4.79,1.977,3.166,2.088,6.751.331,10.656l0,0v0a17.613,17.613,0,0,1-7.506,8.149,53,53,0,0,1-11.9,4.683l-1.563.429.318-1.59.81-4.05a.768.768,0,0,0,0-.444.465.465,0,0,0-.235-.151.294.294,0,0,0-.042,0,.771.771,0,0,0-.348.115.521.521,0,0,0-.253.23L95.349-57.6a.844.844,0,0,0,0,.476c.012.019.086.077.289.117l.023,0,.023.006a.479.479,0,0,0,.118.015.612.612,0,0,0,.273-.074c.108-.054.134-.1.146-.136L97.3-62.958l.114-.615.6-.166a23.549,23.549,0,0,1,6.1-.97,7.529,7.529,0,0,1,5.534,1.9l.021.021.019.022c1.615,1.817,2.335,4.556,2.142,8.14-.283,5.559-3.436,11.105-9.372,16.485l-2.33,2.111.682-3.069c.178-.8.31-1.373.4-1.746a.792.792,0,0,0-.008-.449c-.011-.019-.086-.077-.289-.117l-.023,0-.024-.006a.472.472,0,0,0-.117-.015.613.613,0,0,0-.273.074c-.121.061-.139.106-.15.15-.265,1.149-.534,2.449-.8,3.865-.268,1.431-.541,2.906-.809,4.382s-.494,2.763-.673,3.833v.014a.929.929,0,0,0,0,.531.426.426,0,0,0,.179.069l.013,0,.013,0a.479.479,0,0,0,.118.015.612.612,0,0,0,.273-.074c.114-.057.136-.1.148-.142.535-2.584.941-4.572,1.209-5.909l.1-.48.438-.219.779-.389c1.963-1.16,3.526-2.066,4.647-2.694a20.633,20.633,0,0,1,4.758-1.782,14.681,14.681,0,0,1,3.7-.513,10.751,10.751,0,0,1,1.861.158l.011,0,.011,0a7.914,7.914,0,0,1,4.924,3.081,10.874,10.874,0,0,1,2.086,5.64v.009c.043.534.064,1.067.06,1.6q.143-.774.335-1.555c.1-.392.2-.782.322-1.161a13.489,13.489,0,0,0-1.505-4.115,8.339,8.339,0,0,0-4.472-3.875,10.873,10.873,0,0,0-3.719-.632,16.92,16.92,0,0,0-5.844,1.172l-3.511,1.306,2.393-2.882a25.123,25.123,0,0,0,4.222-7.008,18.224,18.224,0,0,0,1.218-7.168v-.011a12.9,12.9,0,0,0-.869-4.6,8.123,8.123,0,0,0-2.284-3.16l-.008-.007-.007-.007a7.457,7.457,0,0,0-2.143-1.309l-2.2-.881,2.17-.961a27.653,27.653,0,0,0,8.308-5.4A16.139,16.139,0,0,0,120-79.4a12.826,12.826,0,0,0,.509-5.51,10.292,10.292,0,0,0-1.971-4.675,10.959,10.959,0,0,0-3.745-3.155,15.941,15.941,0,0,0-5.419-1.58c-1.351-.129-2.727-.195-4.09-.195M219.9-64.07a.555.555,0,0,0-.323.078.82.82,0,0,0-.15.5v.017c-.623,5.792-1.03,11.71-1.209,17.59a.44.44,0,0,0,.051.24c.008.011.022.028.1.04a2.241,2.241,0,0,0,.314.024,1.58,1.58,0,0,0,.258-.02.36.36,0,0,0,.2-.126c.016-.016.045-.045.045-.171v-.015c.09-5.943.455-11.924,1.086-17.777l.011-.107.021-.062a.558.558,0,0,0-.16-.111,1.1,1.1,0,0,0-.244-.1M28.013-96.66q2.362,0,8.032.135t6.885.135q7.7.135,11.61,2.295A14.782,14.782,0,0,1,61.155-86.4a17.965,17.965,0,0,1,1.553,9.99,14.609,14.609,0,0,1-4.118,9.045A15,15,0,0,1,48.6-62.64h-.27a2.219,2.219,0,0,0-.54.068,1.846,1.846,0,0,1-.405.067,3.692,3.692,0,0,0-.135.81q-.135,2.16-1.62,29.7-.675,12.96-2.565,18.9Q40.77-5.8,36.315-2.565A12.16,12.16,0,0,1,28.751.042,14.782,14.782,0,0,1,25.785-.27a14.849,14.849,0,0,1-6.817-3.847,16.661,16.661,0,0,1-4.05-6.615A43.6,43.6,0,0,1,13.1-18.36a44.748,44.748,0,0,1-.405-7.83q.135-5.4.878-11.948t1.62-13.5q.878-6.952,1.147-11.947Q9.45-63.585,5.4-65.61-.135-68.31-.81-75.87A17.228,17.228,0,0,1,2.7-88.83q3.645-4.86,11.2-6.48a65.7,65.7,0,0,1,7.56-1.013Q25.65-96.66,28.013-96.66ZM49.275-65.61A12.508,12.508,0,0,0,54.27-67.5a11.91,11.91,0,0,0,5.265-7.628,14.428,14.428,0,0,0-.675-9.382,12.088,12.088,0,0,0-6.075-7.155Q49.41-93.42,41.175-93.42q-1.89,0-6.278-.135t-6.885-.135q-2.5,0-6.142.2a39.948,39.948,0,0,0-6.615.878q-6.75,1.35-9.99,5.13a15.066,15.066,0,0,0-3.24,10.53q.27,7.02,5.535,9.18,3.068,1.227,9.149,1.227.608,0,1.246-.012a1.419,1.419,0,0,1,1.013.473,1.419,1.419,0,0,1,.472,1.012q-.405,5.94-1.89,17.955t-1.89,18.09Q14.58-6.075,26.595-3.105a11.394,11.394,0,0,0,2.472.286,8.505,8.505,0,0,0,4.008-.961,11.265,11.265,0,0,0,4.59-4.59,31.574,31.574,0,0,0,2.7-6.142A45.15,45.15,0,0,0,41.85-21.06q.54-3.915,1.08-14.85,1.215-22.68,1.485-26.46a6.513,6.513,0,0,1,.54-2.835,3.3,3.3,0,0,1,1.282-.4,7.312,7.312,0,0,1,1.11-.09q.262,0,.51.022Q48.6-65.61,49.275-65.61Zm171.24-30.443h.21a24.056,24.056,0,0,1,14.85,4.927,24.043,24.043,0,0,1,7.56,10.935,70.014,70.014,0,0,1,3.24,15.39q1.485,14.04,1.62,26.19.27,16.6-4.185,26.325-2.97,6.75-7.83,9.585a14.407,14.407,0,0,1-7.169,2.139A11.085,11.085,0,0,1,224.1-1.62q-5.4-2.565-7.29-10.665A41.649,41.649,0,0,1,215.6-19.98a105.165,105.165,0,0,1-4.86,10.8Q205.875-.27,198.99,0c-.142.005-.283.008-.424.008a11.5,11.5,0,0,1-6.326-1.966,14.519,14.519,0,0,1-5-5.332q-3.24-5.67-2.7-16.875A142.436,142.436,0,0,1,190.62-59.94a122.11,122.11,0,0,1,6.615-16.74q4.725-9.99,8.91-14.04A20.894,20.894,0,0,1,220.515-96.053Zm8.268,92.568q.353,0,.717-.025a12.116,12.116,0,0,0,9.113-5.467A32.253,32.253,0,0,0,243.54-20.52q2.16-9.045,1.35-24.3-.81-16.335-1.89-23.49-2.16-14.85-9.45-20.79a20.423,20.423,0,0,0-12.93-4.034q-1.327,0-2.73.118-7.965.675-13.365,8.91-7.29,11.205-12.15,28.62a135.408,135.408,0,0,0-4.995,31.32Q186.975-13.5,189.81-8.64a12.126,12.126,0,0,0,5.13,4.86,8.217,8.217,0,0,0,3.7.926,7.86,7.86,0,0,0,2.777-.521q4.32-1.755,8.1-9.855,2.97-6.345,5.67-13.905-2.43.81-7.155,2.43a1.5,1.5,0,0,1-.473.083,1.141,1.141,0,0,1-.877-.421,1.63,1.63,0,0,1-.4-1.417,1.337,1.337,0,0,1,1.08-1.08q2.97-.945,8.978-2.97t8.977-2.97a1.78,1.78,0,0,1,.653-.144q.806,0,1.1,1.089a1.7,1.7,0,0,1-.945,1.755l-7.29,2.43a25.873,25.873,0,0,0-.337,7.425,81.676,81.676,0,0,0,1.08,8.37,12.329,12.329,0,0,0,3.375,6.683A7.931,7.931,0,0,0,228.783-3.485ZM163.622-95.9q1.142,0,2.293.054,9.585.4,13.77,3.645,6.345,4.725,6.345,17.955a191.3,191.3,0,0,1-2.16,29.295q-.675,5-1.35,8.505t-1.957,8.505a50.683,50.683,0,0,1-2.971,8.64,57.832,57.832,0,0,1-4.117,7.358A25.491,25.491,0,0,1,167.6-5.6,24.89,24.89,0,0,1,159.84-1.62,31.51,31.51,0,0,1,150.065.044a24.21,24.21,0,0,1-12.5-3.419,24.825,24.825,0,0,1-8.167-7.29,28.968,28.968,0,0,1-4.658-9.99,19.115,19.115,0,0,1-.6-2.871,20.561,20.561,0,0,0,1.138-7.119,16.248,16.248,0,0,0-.228-2.213,15.777,15.777,0,0,1,5.358-7.777,12.347,12.347,0,0,1,7.344-2.592,11.42,11.42,0,0,1,1.9.162A14.7,14.7,0,0,1,148.1-38.34q4.86-22.815,5.265-25.65a23.551,23.551,0,0,1-4.409.393q-.881,0-1.8-.055a33.393,33.393,0,0,1-6.278-.945,12.551,12.551,0,0,1-5.264-2.835,10.239,10.239,0,0,1-3.173-5.2,13.539,13.539,0,0,1,3.578-12.96,31.666,31.666,0,0,1,13.23-8.033A45.876,45.876,0,0,1,163.622-95.9ZM150.47-2.8a23.218,23.218,0,0,0,2.823-.174,29.57,29.57,0,0,0,6.48-1.553A22.516,22.516,0,0,0,165.51-7.56q7.29-5.13,11.475-18.765a147.94,147.94,0,0,0,5.13-27.4,151.234,151.234,0,0,0,.945-23.355q-.54-11.34-7.425-14.175-4.158-1.764-11.609-1.764-.532,0-1.081.009a42.625,42.625,0,0,0-13.5,2.43,26.765,26.765,0,0,0-11.138,6.615,10.82,10.82,0,0,0-3.037,10.53,8.061,8.061,0,0,0,4.59,5.4,15.4,15.4,0,0,0,6.753,1.573q.4,0,.807-.021,3.915-.2,7.29-.607a2.566,2.566,0,0,1,.362-.027,1.519,1.519,0,0,1,1.123.432,1.462,1.462,0,0,1,.4,1.35q-.54,3.51-1.418,7.762t-1.619,7.56q-.743,3.308-1.756,7.83t-1.552,7.627a1.3,1.3,0,0,1-1.282,1.013q-.078.005-.153.005a1.3,1.3,0,0,1-1.265-.748,12.436,12.436,0,0,0-4.387-4.522,10.437,10.437,0,0,0-5.531-1.562q-.237,0-.477.01-5.13.27-8.235,5.94A18.391,18.391,0,0,0,127.1-23.692a24.347,24.347,0,0,0,3.982,10.327,21.759,21.759,0,0,0,15.66,10.26A22.618,22.618,0,0,0,150.47-2.8ZM105.286-95.51q2.109,0,4.2.2,6.615.81,9.855,5.13,3.51,4.725,1.62,11.07-2.43,8.235-13.1,12.96a8.4,8.4,0,0,1,2.43,1.485q3.375,2.835,3.51,8.505.27,7.7-5.67,14.85a17.827,17.827,0,0,1,6.193-1.234,11.806,11.806,0,0,1,4.067.694,9.382,9.382,0,0,1,5,4.32,14.456,14.456,0,0,1,1.662,4.672q-.21.651-.379,1.336a21.59,21.59,0,0,0-.531,8,25.965,25.965,0,0,1-4.262,7.6A41.559,41.559,0,0,1,106.785-4.86,42.767,42.767,0,0,1,90.315-.135q-2.025.147-3.91.147a32.821,32.821,0,0,1-11.75-1.9q-7.83-2.835-10.8-9.72-3.915-8.91,0-19.845,1.89-5.265,7.425-12.42,2.43-3.24,3.915-4.86l.067-.068.068-.067q-9.99-3.1-12.69-9.72-2.565-6.345,1.08-13.5a38.023,38.023,0,0,1,9.787-12.218A51.1,51.1,0,0,1,89.37-92.745,48.975,48.975,0,0,1,105.286-95.51Zm-6.466,29.5a51.781,51.781,0,0,0,11.678-4.59,16.557,16.557,0,0,0,7.087-7.695q2.43-5.4-.27-9.72-2.295-3.78-7.83-4.32-2.029-.195-4.081-.195A48.685,48.685,0,0,0,89.235-89.64q-16.2,5.94-22.41,18.225Q63.18-64.26,65.61-59.13q2.565,5.535,13.365,8.235,1.08.27.945,1.62-.123,1.227-1.138,1.227-.084,0-.174-.008a.155.155,0,0,0-.038,0l.038,0q.074.019-.038.131a3.842,3.842,0,0,0-.81.675q-.675.675-1.755,1.89-1.485,1.89-3.51,4.59-5.535,7.56-7.02,14.31Q63.315-16.2,68.31-9.72,71.955-5,79.38-3.51a38.78,38.78,0,0,0,7.206.675,40.416,40.416,0,0,0,7.307-.675,38.235,38.235,0,0,0,13.432-5.13,35.768,35.768,0,0,0,11.07-10.193,19.189,19.189,0,0,0,3.915-12.892,9.848,9.848,0,0,0-1.89-5.13,6.911,6.911,0,0,0-4.32-2.7,9.691,9.691,0,0,0-1.687-.143,13.614,13.614,0,0,0-3.443.48,19.574,19.574,0,0,0-4.522,1.688q-1.687.945-4.658,2.7l-.81.405q-.405,2.025-1.215,5.94a1.208,1.208,0,0,1-.675.81,1.6,1.6,0,0,1-.72.18,1.479,1.479,0,0,1-.36-.045q-1.215-.27-.945-1.755.27-1.62.675-3.848t.81-4.387q.4-2.16.81-3.915a1.208,1.208,0,0,1,.675-.81,1.6,1.6,0,0,1,.72-.18,1.479,1.479,0,0,1,.36.045q1.35.27,1.08,1.755-.135.54-.4,1.755,8.64-7.83,9.045-15.795.27-5-1.89-7.425a6.557,6.557,0,0,0-4.827-1.609,22.468,22.468,0,0,0-5.838.934L97.2-56.97a1.208,1.208,0,0,1-.675.81,1.6,1.6,0,0,1-.72.18,1.479,1.479,0,0,1-.36-.045q-1.35-.27-1.08-1.755l2.43-12.96a1.4,1.4,0,0,1,.743-.878,1.718,1.718,0,0,1,.833-.241,1.291,1.291,0,0,1,.314.039,1.35,1.35,0,0,1,.945,1.755Zm121.095.945a1.592,1.592,0,0,1,.675.2,1.432,1.432,0,0,1,.608.54.854.854,0,0,1,.067.743q-.945,8.775-1.08,17.685a1.187,1.187,0,0,1-.337.878,1.364,1.364,0,0,1-.743.4,2.567,2.567,0,0,1-.422.034,3.211,3.211,0,0,1-.455-.034,1.113,1.113,0,0,1-.743-.4,1.362,1.362,0,0,1-.27-.878q.27-8.91,1.215-17.685Q218.565-65.07,219.915-65.07Z" stroke="#00c7ff" fill="#7ee2ff"/>
  </g>
</svg>
